<?xml version="1.0" encoding="utf-8"?>
<!-- Generator: Adobe Illustrator 22.0.1, SVG Export Plug-In . SVG Version: 6.00 Build 0)  -->
<svg version="1.1" id="Layer_1" xmlns="http://www.w3.org/2000/svg" xmlns:xlink="http://www.w3.org/1999/xlink" x="0px" y="0px"
	 viewBox="0 0 612 792" style="enable-background:new 0 0 612 792;" xml:space="preserve">
<style type="text/css">
	.st0{fill:#FEFEFE;}
	.st1{fill:#0E739E;}
</style>
<g>
	<g>
		<path class="st0" d="M224.6,232.1c-55.2,0-110.3,0-165.5,0c-0.9,0-1.1-0.2-1.1-1.1c0-28.1,0-56.2,0-84.4c0-0.8,0.2-1,1-1
			c110.4,0,220.8,0,331.2,0c0.8,0,1,0.2,1,1c0,28.2,0,56.3,0,84.5c0,0.8-0.2,1-1,1C335,232.1,279.8,232.1,224.6,232.1z"/>
		<path class="st1" d="M276,192.3c0-10.6,0-21.1,0-31.7c0-1.1,0.3-1.3,1.3-1.3c10,0,20.1,0,30.1,0c3.2,0,6.4,0.3,9.5,0.9
			c7.4,1.5,11.7,6,13.4,13.3c0.7,2.9,1.1,5.9,1.1,8.9c0.1,7.2,0.3,14.4-0.2,21.6c-0.2,2.9-0.7,5.8-1.5,8.6
			c-2,6.7-6.6,10.3-13.2,11.7c-3.1,0.7-6.3,0.9-9.4,0.9c-10,0-20,0-30,0c-1.1,0-1.3-0.3-1.3-1.3c0-10.6,0-21.1,0-31.7
			C275.8,192.3,275.9,192.3,276,192.3z"/>
		<path class="st1" d="M222.4,197.8c1,0.3,1.8,0.5,2.5,0.7c5.8,1.8,8.8,5.4,9,11.5c0.2,4.8,0,9.7,0.1,14.5c0,0.7-0.3,0.8-0.9,0.8
			c-5.1,0-10.2,0-15.4,0c-0.9,0-0.9-0.4-0.9-1c0-3.5,0-7,0-10.6c0-1-0.1-2-0.2-3c-0.4-2.8-1.8-4.2-4.7-4.5
			c-3.6-0.3-7.2-0.1-10.8-0.2c-0.9,0-0.7,0.6-0.7,1.1c0,5.6-0.1,11.1,0,16.7c0,1.1-0.2,1.5-1.4,1.5c-4.7-0.1-9.4-0.1-14.2,0
			c-0.9,0-1.2-0.2-1.2-1.1c0.1-21.2,0.1-42.5,0.2-63.7c0-0.9,0.2-1.2,1.1-1.2c8.6,0,17.3,0,25.9,0c3.8,0,7.5,0.3,11.2,1.2
			c7.3,1.7,10.7,5.2,11.7,12.6c0.6,4.6,0.6,9.2-0.1,13.7c-0.9,5.5-4.2,9.1-9.7,10.4C223.6,197.5,223.2,197.6,222.4,197.8z"/>
		<path class="st1" d="M92.9,158.5c4.1,0.1,8.2-0.2,12.3,0.6c1.9,0.4,3.6,0.9,5.3,1.8c4.5,2.4,6.9,6.2,7.3,11.2
			c0.1,1.9,0,3.8,0.1,5.6c0,0.6-0.2,0.8-0.8,0.8c-4.8,0-9.6,0-14.4,0c-0.6,0-0.9-0.1-0.8-0.8c0.1-4.2-1.8-5.1-5.5-5.2
			c-2.5-0.1-5-0.2-7.4,0.2c-2.7,0.4-3.9,1.6-3.9,4.4c0,0.6,0,1.2,0,1.8c0,2.4,0.8,3.5,3.1,4.4c2.2,0.8,4.5,0.9,6.8,1.2
			c4.7,0.7,9.6,0.8,14.2,2.1c6.9,2,10.4,6.5,10.7,13.6c0.2,4.3,0.4,8.7-0.5,13c-1.5,6.8-7.1,12-14.1,12.5
			c-8.2,0.5-16.5,0.8-24.8-0.4c-1.2-0.2-2.4-0.5-3.6-1c-5.2-1.8-8-5.7-8.9-11c-0.4-2.6-0.2-5.2-0.3-7.8c0-0.6,0.3-0.7,0.8-0.7
			c4.8,0,9.6,0,14.4,0c0.7,0,0.9,0.2,0.9,0.9c0,0.7,0,1.3,0.2,2c0.4,2,1.6,3.2,3.5,3.7c0.7,0.2,1.5,0.4,2.2,0.4
			c3.1,0.1,6.2,0.3,9.3-0.1c2.5-0.4,3.6-1.5,3.8-4c0.1-1.6,0.2-3.2-0.1-4.8c-0.2-1.4-1-2.3-2.3-2.8c-2.1-0.8-4.4-0.9-6.6-1.2
			c-4.5-0.6-9.1-0.8-13.6-1.7c-6.9-1.3-10.6-5-11.7-11.9c-0.8-5.3-1-10.7,0.5-15.9c1.8-6.4,6.3-10,12.8-10.6
			C85.6,158.5,89.3,158.6,92.9,158.5z"/>
		<path class="st1" d="M342.2,192.3c0-10.6,0-21.1,0-31.7c0-1,0.2-1.3,1.2-1.3c14.8,0,29.6,0,44.4,0c1,0,1.3,0.3,1.2,1.2
			c-0.1,4.1-0.1,8.2,0,12.4c0,0.9-0.3,1.1-1.1,1.1c-9.2,0-18.5,0-27.7,0c-1.1,0-1.3,0.3-1.3,1.3c0.1,3,0,6,0,9c0,1,0.3,1.2,1.2,1.2
			c8.9,0,17.8,0,26.8,0c1,0,1.3,0.2,1.3,1.3c-0.1,3.4-0.1,6.9,0,10.3c0,0.9-0.3,1.1-1.1,1.1c-8.9,0-17.8,0-26.8,0
			c-1.1,0-1.4,0.2-1.4,1.4c0.1,3.3,0.1,6.6,0,10c0,0.9,0.3,1.1,1.1,1.1c9.4,0,18.9,0,28.3,0c1,0,1.4,0.2,1.3,1.3
			c-0.1,4.1-0.1,8.2,0,12.4c0,0.8-0.1,1.1-1,1.1c-15.2,0-30.3,0-45.5,0c-1,0-1-0.5-1-1.2c0-10.6,0-21.2,0-31.8
			C342.1,192.3,342.2,192.3,342.2,192.3z"/>
		<path class="st1" d="M142.1,199.6c0-8.1,0-16.2,0-24.4c0-1-0.2-1.3-1.2-1.3c-4.6,0.1-9.1,0-13.7,0c-0.9,0-1.1-0.3-1.1-1.1
			c0.1-4.2,0.1-8.3,0-12.5c0-1,0.3-1.1,1.2-1.1c15.5,0,31,0,46.6,0c1,0,1.2,0.3,1.2,1.2c-0.1,4.1-0.1,8.2,0,12.2
			c0,1-0.2,1.3-1.2,1.3c-4.5-0.1-9,0-13.6-0.1c-1,0-1.2,0.3-1.2,1.2c0,16.2-0.1,32.4-0.1,48.6c0,1.3-0.4,1.5-1.6,1.5
			c-4.6-0.1-9.3-0.1-13.9,0c-1.2,0-1.4-0.4-1.4-1.5c0-8.1,0-16.2,0-24.2C142.1,199.6,142.1,199.6,142.1,199.6z"/>
		<path class="st1" d="M246,192.3c0-10.6,0-21.1,0-31.7c0-1,0.2-1.3,1.3-1.3c4.8,0.1,9.6,0,14.4,0c0.9,0,1.2,0.1,1.2,1.1
			c-0.1,21.2-0.2,42.4-0.2,63.6c0,1-0.3,1.3-1.3,1.3c-4.9-0.1-9.8,0-14.6,0c-0.7,0-1-0.1-1-1c0-10.7,0-21.3,0-32
			C245.8,192.3,245.9,192.3,246,192.3z"/>
		<path class="st0" d="M292.6,192.3c0-5.7,0-11.4,0-17.2c0-1,0.3-1.2,1.2-1.2c4.4,0.1,8.9-0.1,13.3,0.2c5.1,0.4,6.6,1.9,7,6.9
			c0.6,7.7,0.6,15.4-0.2,23.1c-0.5,4.3-2.1,6-6.4,6.2c-4.7,0.2-9.5,0.1-14.3,0.1c-0.9,0-0.6-0.6-0.6-1.1
			C292.5,203.8,292.6,198,292.6,192.3C292.6,192.3,292.6,192.3,292.6,192.3z"/>
		<path class="st0" d="M200.6,182.6c0-2.6,0-5.1,0-7.7c0-0.4-0.2-0.9,0.6-0.9c3.7,0.1,7.5-0.3,11.3,0.2c2.7,0.3,4,1.5,4.4,4.1
			c0.5,2.8,0.5,5.7,0,8.5c-0.5,2.7-1.9,4-4.8,4.2c-3.6,0.3-7.2,0.1-10.8,0.1c-0.7,0-0.7-0.4-0.7-0.9
			C200.6,187.7,200.6,185.1,200.6,182.6C200.6,182.6,200.6,182.6,200.6,182.6z"/>
	</g>
</g>
</svg>
